<?xml version="1.0" encoding="UTF-8" standalone="no"?>
<svg
   xmlns:dc="http://purl.org/dc/elements/1.1/"
   xmlns:cc="http://creativecommons.org/ns#"
   xmlns:rdf="http://www.w3.org/1999/02/22-rdf-syntax-ns#"
   xmlns:svg="http://www.w3.org/2000/svg"
   xmlns="http://www.w3.org/2000/svg"
   xmlns:sodipodi="http://sodipodi.sourceforge.net/DTD/sodipodi-0.dtd"
   xmlns:inkscape="http://www.inkscape.org/namespaces/inkscape"
   width="210mm"
   height="297mm"
   viewBox="0 0 210 297"
   version="1.1"
   id="svg1128"
   inkscape:version="1.0.2-2 (e86c870879, 2021-01-15)"
   sodipodi:docname="StoreImages.svg">
  <defs
     id="defs1122" />
  <sodipodi:namedview
     id="base"
     pagecolor="#ffffff"
     bordercolor="#666666"
     borderopacity="1.0"
     inkscape:pageopacity="0.0"
     inkscape:pageshadow="2"
     inkscape:zoom="0.17037356"
     inkscape:cx="-329.9631"
     inkscape:cy="618.09975"
     inkscape:document-units="mm"
     inkscape:current-layer="layer1"
     inkscape:document-rotation="0"
     showgrid="false"
     inkscape:window-width="1920"
     inkscape:window-height="1017"
     inkscape:window-x="-8"
     inkscape:window-y="-8"
     inkscape:window-maximized="1" />
  <metadata
     id="metadata1125">
    <rdf:RDF>
      <cc:Work
         rdf:about="">
        <dc:format>image/svg+xml</dc:format>
        <dc:type
           rdf:resource="http://purl.org/dc/dcmitype/StillImage" />
        <dc:title></dc:title>
      </cc:Work>
    </rdf:RDF>
  </metadata>
  <g
     inkscape:label="Layer 1"
     inkscape:groupmode="layer"
     id="layer1">
    <rect
       style="fill:#5f50e1;fill-opacity:1;stroke-width:0.328022"
       id="rect1108"
       width="515.9375"
       height="343.95834"
       x="-98.013908"
       y="1.3713545"
       inkscape:export-xdpi="96"
       inkscape:export-ydpi="96" />
    <g
       style="fill:#ffffff"
       id="g1120"
       transform="matrix(14.111111,0,0,14.111111,-9.3785,12.4839)"
       inkscape:export-xdpi="96"
       inkscape:export-ydpi="96">
      <path
         d="M 0,0 H 24 V 24 H 0 Z"
         fill="none"
         id="path1116" />
      <path
         d="M 19,9 H 15 V 3 H 9 V 9 H 5 l 7,7 z m -8,2 V 5 h 2 v 6 h 1.17 L 12,13.17 9.83,11 Z m -6,7 h 14 v 2 H 5 Z"
         id="path1118" />
    </g>
    <rect
       style="fill:#5f50e1;fill-opacity:1;stroke-width:0.0706507"
       id="rect1088"
       width="111.125"
       height="74.083336"
       x="70.227264"
       y="-97.607109"
       inkscape:export-xdpi="96"
       inkscape:export-ydpi="96" />
    <g
       style="fill:#ffffff"
       id="g1106"
       transform="matrix(2.8663194,0,0,2.8663194,91.39393,-92.84459)"
       inkscape:export-xdpi="96"
       inkscape:export-ydpi="96">
      <path
         d="M 0,0 H 24 V 24 H 0 Z"
         fill="none"
         id="path1102" />
      <path
         d="M 19,9 H 15 V 3 H 9 V 9 H 5 l 7,7 z m -8,2 V 5 h 2 v 6 h 1.17 L 12,13.17 9.83,11 Z m -6,7 h 14 v 2 H 5 Z"
         id="path1104" />
    </g>
    <rect
       style="fill:#5f50e1;fill-opacity:1;stroke-width:0.0329634"
       id="rect1086"
       width="42.333332"
       height="42.333332"
       x="123.25861"
       y="-174.90971"
       inkscape:export-xdpi="96"
       inkscape:export-ydpi="96" />
    <g
       style="fill:#ffffff"
       id="g1084"
       transform="matrix(1.5434028,0,0,1.5434028,125.90445,-170.67637)"
       inkscape:export-xdpi="96"
       inkscape:export-ydpi="96">
      <path
         d="M 0,0 H 24 V 24 H 0 Z"
         fill="none"
         id="path1070" />
      <path
         d="M 19,9 H 15 V 3 H 9 V 9 H 5 l 7,7 z m -8,2 V 5 h 2 v 6 h 1.17 L 12,13.17 9.83,11 Z m -6,7 h 14 v 2 H 5 Z"
         id="path1072" />
    </g>
  </g>
</svg>
